<mxfile host="app.diagrams.net" modified="2023-11-05T08:34:03.359Z" agent="Mozilla/5.0 (Windows NT 10.0; Win64; x64) AppleWebKit/537.36 (KHTML, like Gecko) Chrome/118.0.0.0 Safari/537.36" etag="UIii7JEy8y2j5GgXJ2Rh" version="22.0.8" type="device">
  <diagram name="Page-1" id="JXtn1I62-kHl-awcifEA">
    <mxGraphModel dx="1434" dy="758" grid="1" gridSize="10" guides="1" tooltips="1" connect="1" arrows="1" fold="1" page="1" pageScale="1" pageWidth="827" pageHeight="1169" math="0" shadow="0">
      <root>
        <mxCell id="0" />
        <mxCell id="1" parent="0" />
        <mxCell id="yiTj3LzPa46zzSEXwDuf-1" value="Baca file csv" style="rounded=0;whiteSpace=wrap;html=1;" vertex="1" parent="1">
          <mxGeometry x="20" y="350" width="120" height="60" as="geometry" />
        </mxCell>
        <mxCell id="yiTj3LzPa46zzSEXwDuf-11" value="" style="edgeStyle=orthogonalEdgeStyle;rounded=0;orthogonalLoop=1;jettySize=auto;html=1;" edge="1" parent="1" source="yiTj3LzPa46zzSEXwDuf-2" target="yiTj3LzPa46zzSEXwDuf-3">
          <mxGeometry relative="1" as="geometry" />
        </mxCell>
        <mxCell id="yiTj3LzPa46zzSEXwDuf-2" value="simpan sebagai query list query" style="rounded=0;whiteSpace=wrap;html=1;" vertex="1" parent="1">
          <mxGeometry x="170" y="350" width="120" height="60" as="geometry" />
        </mxCell>
        <mxCell id="yiTj3LzPa46zzSEXwDuf-12" value="" style="edgeStyle=orthogonalEdgeStyle;rounded=0;orthogonalLoop=1;jettySize=auto;html=1;" edge="1" parent="1" source="yiTj3LzPa46zzSEXwDuf-3" target="yiTj3LzPa46zzSEXwDuf-4">
          <mxGeometry relative="1" as="geometry" />
        </mxCell>
        <mxCell id="yiTj3LzPa46zzSEXwDuf-3" value="scrapping data dari query" style="rounded=0;whiteSpace=wrap;html=1;" vertex="1" parent="1">
          <mxGeometry x="330" y="350" width="120" height="60" as="geometry" />
        </mxCell>
        <mxCell id="yiTj3LzPa46zzSEXwDuf-4" value="simpan link dalam array / fariable yang dapat menyimpan banyak link gambar" style="rounded=0;whiteSpace=wrap;html=1;" vertex="1" parent="1">
          <mxGeometry x="490" y="350" width="120" height="60" as="geometry" />
        </mxCell>
        <mxCell id="yiTj3LzPa46zzSEXwDuf-5" value="Membuat folder dengan nama sesuai query yang dicari misal lemon" style="rounded=0;whiteSpace=wrap;html=1;" vertex="1" parent="1">
          <mxGeometry x="490" y="460" width="120" height="60" as="geometry" />
        </mxCell>
        <mxCell id="yiTj3LzPa46zzSEXwDuf-6" value="mendownload gambar dan di label i misal lemon_1 dst&lt;br&gt;sesuai dengan file nya" style="rounded=0;whiteSpace=wrap;html=1;" vertex="1" parent="1">
          <mxGeometry x="490" y="580" width="120" height="60" as="geometry" />
        </mxCell>
        <mxCell id="yiTj3LzPa46zzSEXwDuf-8" value="" style="endArrow=classic;html=1;rounded=0;exitX=1;exitY=0.5;exitDx=0;exitDy=0;entryX=0;entryY=0.5;entryDx=0;entryDy=0;" edge="1" parent="1" source="yiTj3LzPa46zzSEXwDuf-1" target="yiTj3LzPa46zzSEXwDuf-2">
          <mxGeometry width="50" height="50" relative="1" as="geometry">
            <mxPoint x="390" y="420" as="sourcePoint" />
            <mxPoint x="440" y="370" as="targetPoint" />
          </mxGeometry>
        </mxCell>
        <mxCell id="yiTj3LzPa46zzSEXwDuf-13" value="" style="endArrow=classic;html=1;rounded=0;exitX=0.5;exitY=1;exitDx=0;exitDy=0;entryX=0.5;entryY=0;entryDx=0;entryDy=0;" edge="1" parent="1" source="yiTj3LzPa46zzSEXwDuf-4" target="yiTj3LzPa46zzSEXwDuf-5">
          <mxGeometry width="50" height="50" relative="1" as="geometry">
            <mxPoint x="390" y="420" as="sourcePoint" />
            <mxPoint x="440" y="370" as="targetPoint" />
          </mxGeometry>
        </mxCell>
        <mxCell id="yiTj3LzPa46zzSEXwDuf-14" value="" style="endArrow=classic;html=1;rounded=0;exitX=0.5;exitY=1;exitDx=0;exitDy=0;entryX=0.5;entryY=0;entryDx=0;entryDy=0;" edge="1" parent="1" source="yiTj3LzPa46zzSEXwDuf-5" target="yiTj3LzPa46zzSEXwDuf-6">
          <mxGeometry width="50" height="50" relative="1" as="geometry">
            <mxPoint x="390" y="420" as="sourcePoint" />
            <mxPoint x="440" y="370" as="targetPoint" />
          </mxGeometry>
        </mxCell>
      </root>
    </mxGraphModel>
  </diagram>
</mxfile>
